<?xml version="1.0" standalone="no"?>
<!DOCTYPE svg PUBLIC "-//W3C//DTD SVG 20010904//EN"
 "http://www.w3.org/TR/2001/REC-SVG-20010904/DTD/svg10.dtd">
<svg version="1.0" xmlns="http://www.w3.org/2000/svg"
 width="128.000000pt" height="128.000000pt" viewBox="0 0 128.000000 128.000000"
 preserveAspectRatio="xMidYMid meet">

<g transform="translate(0.000000,128.000000) scale(0.100000,-0.100000)"
fill="#000000" stroke="none">
<path d="M653 1260 c-94 -57 -81 -196 22 -236 42 -16 48 -16 90 0 53 21 85 66
85 122 0 103 -110 167 -197 114z"/>
<path d="M375 991 c-69 -31 -131 -117 -156 -215 -15 -59 -4 -87 44 -109 42
-20 106 -22 130 -4 11 7 38 78 67 177 28 91 50 166 50 168 0 10 -103 -2 -135
-17z"/>
<path d="M512 821 c-55 -190 -61 -235 -38 -280 8 -15 60 -65 115 -110 l101
-82 0 -155 c0 -141 2 -156 20 -174 25 -25 52 -26 73 -2 15 16 17 45 17 194 l0
176 -75 98 c-42 54 -74 103 -72 108 2 6 15 56 28 111 12 55 24 102 26 104 2 2
32 -23 67 -57 35 -34 69 -62 75 -62 6 0 43 16 81 35 38 19 72 35 75 35 3 0 5
-171 5 -380 l0 -380 30 0 30 0 0 396 0 396 25 20 c32 25 32 53 0 82 -14 13
-25 33 -25 45 0 17 -6 21 -30 21 -28 0 -30 -2 -30 -38 0 -37 -1 -38 -74 -74
l-75 -37 -71 76 c-65 70 -76 77 -138 94 -36 11 -71 19 -77 19 -6 0 -34 -81
-63 -179z"/>
<path d="M450 480 c-3 -62 -36 -185 -79 -289 -28 -69 -51 -132 -51 -141 0 -9
9 -25 20 -35 16 -15 26 -17 48 -9 23 8 35 28 74 124 26 63 58 146 70 184 l23
69 -41 36 c-22 20 -46 45 -52 56 -8 14 -12 16 -12 5z"/>
</g>
</svg>
